<svg width="32" height="32" viewBox="0 0 32 32" fill="none" xmlns="http://www.w3.org/2000/svg">
<path d="M14.7062 11.9598C14.5167 11.7832 14.2659 11.687 14.0069 11.6916C13.7478 11.6961 13.5006 11.8011 13.3174 11.9843C13.1342 12.1675 13.0292 12.4147 13.0247 12.6738C13.0201 12.9328 13.1162 13.1836 13.2929 13.3731L15.9196 15.9998L13.2929 18.6265C13.1946 18.718 13.1158 18.8284 13.0612 18.9511C13.0065 19.0737 12.9771 19.2062 12.9748 19.3404C12.9724 19.4747 12.9971 19.6081 13.0474 19.7326C13.0977 19.8571 13.1725 19.9702 13.2675 20.0652C13.3625 20.1601 13.4756 20.235 13.6001 20.2853C13.7246 20.3356 13.858 20.3603 13.9923 20.3579C14.1265 20.3555 14.2589 20.3262 14.3816 20.2715C14.5043 20.2168 14.6147 20.138 14.7062 20.0398L17.3329 17.4131L19.9596 20.0398C20.1491 20.2164 20.3998 20.3126 20.6589 20.308C20.918 20.3035 21.1652 20.1985 21.3484 20.0153C21.5316 19.8321 21.6365 19.5849 21.6411 19.3258C21.6457 19.0668 21.5495 18.816 21.3729 18.6265L18.7462 15.9998L21.3729 13.3731C21.5495 13.1836 21.6457 12.9328 21.6411 12.6738C21.6365 12.4147 21.5316 12.1675 21.3484 11.9843C21.1652 11.8011 20.918 11.6961 20.6589 11.6916C20.3998 11.687 20.1491 11.7832 19.9596 11.9598L17.3329 14.5865L14.7062 11.9598Z" fill="#6B7280"/>
<path fill-rule="evenodd" clip-rule="evenodd" d="M28.427 6.17736C27.4057 5.18403 26.1137 4.74536 24.5163 4.53603C22.959 4.33203 20.967 4.33203 18.4457 4.33203H14.8083C13.3643 4.33203 12.211 4.33203 11.267 4.42003C10.2937 4.5107 9.46699 4.70003 8.68699 5.12003C7.90566 5.54136 7.30033 6.12536 6.70033 6.88536C6.12299 7.62003 5.51099 8.57336 4.74699 9.7627L3.78299 11.2654C3.14566 12.2574 2.62433 13.068 2.26966 13.7747C1.89899 14.512 1.66699 15.2147 1.66699 16C1.66699 16.7854 1.89899 17.488 2.26966 18.2267C2.62433 18.9334 3.14566 19.7427 3.78299 20.7347L4.74699 22.236C5.51099 23.4254 6.12299 24.3787 6.70166 25.1134C7.30033 25.8734 7.90566 26.4574 8.68833 26.8787C9.46699 27.2987 10.2923 27.488 11.267 27.5787C12.211 27.6667 13.3643 27.6667 14.8083 27.6667H18.4457C20.967 27.6667 22.959 27.6667 24.5163 27.4627C26.1137 27.2534 27.4057 26.8147 28.4257 25.8214C29.4497 24.8254 29.9057 23.5574 30.123 21.9894C30.3337 20.4694 30.3337 18.5254 30.3337 16.0774V15.9227C30.3337 13.4747 30.3337 11.532 30.123 10.0107C29.907 8.4427 29.4497 7.17603 28.4257 6.1787M18.371 6.33336C20.9817 6.33336 22.843 6.33603 24.255 6.52003C25.6417 6.70136 26.4443 7.0427 27.0297 7.61336C27.611 8.17736 27.9563 8.94803 28.1417 10.2854C28.3297 11.6534 28.3323 13.4574 28.3323 16C28.3323 18.5427 28.3297 20.3467 28.1417 21.7147C27.9563 23.052 27.611 23.8214 27.0297 24.388C26.4443 24.9574 25.6417 25.2987 24.255 25.48C22.8417 25.6654 20.9817 25.6667 18.371 25.6667H14.855C13.3523 25.6667 12.2923 25.6667 11.451 25.5867C10.631 25.5107 10.095 25.3667 9.63499 25.1174C9.17633 24.8707 8.76833 24.508 8.27099 23.8747C7.75899 23.2254 7.19899 22.3547 6.40166 21.1134L5.49366 19.7C4.82033 18.6507 4.35766 17.9294 4.05633 17.328C3.76433 16.748 3.66566 16.3614 3.66566 16C3.66566 15.6387 3.76433 15.252 4.05633 14.672C4.35766 14.072 4.82033 13.3494 5.49366 12.3L6.40033 10.8867C7.19899 9.6467 7.76033 8.7747 8.27099 8.12536C8.76966 7.49203 9.17766 7.12936 9.63499 6.8827C10.095 6.63336 10.631 6.48936 11.451 6.41203C12.291 6.3347 13.3523 6.33336 14.855 6.33336H18.371Z" fill="#6B7280"/>
</svg>
