<svg width="40" height="40" viewBox="0 0 40 40" fill="none" xmlns="http://www.w3.org/2000/svg">
<path d="M11 0.75H27C27.1212 0.75 27.2375 0.798088 27.3232 0.883789L38.1162 11.6768C38.2019 11.7625 38.25 11.8788 38.25 12V36C38.25 37.7949 36.7949 39.25 35 39.25H11C9.20507 39.25 7.75 37.7949 7.75 36V4C7.75 2.20507 9.20508 0.75 11 0.75Z" fill="white" stroke="#D5D7DA" stroke-width="1.5"/>
<path d="M27 0.5V8C27 10.2091 28.7909 12 31 12H38.5" stroke="#D5D7DA" stroke-width="1.5"/>
<rect x="2.5" y="18" width="26" height="16" rx="2" fill="#155EEF"/>
<path d="M9.15146 22.7273H10.6713V27.7983C10.6713 28.267 10.566 28.6742 10.3553 29.0199C10.147 29.3655 9.85695 29.6319 9.48526 29.8189C9.11358 30.0059 8.68152 30.0994 8.1891 30.0994C7.75112 30.0994 7.3534 30.0225 6.99592 29.8686C6.6408 29.7124 6.35908 29.4756 6.15075 29.1584C5.94241 28.8388 5.83943 28.4375 5.8418 27.9545H7.37234C7.37707 28.1463 7.41613 28.3108 7.48952 28.4482C7.56528 28.5831 7.66826 28.6873 7.79847 28.7607C7.93105 28.8317 8.0873 28.8672 8.26722 28.8672C8.45662 28.8672 8.61642 28.8269 8.74663 28.7464C8.8792 28.6636 8.97982 28.5429 9.04847 28.3842C9.11713 28.2256 9.15146 28.0303 9.15146 27.7983V22.7273ZM11.9426 30V22.7273H14.812C15.3636 22.7273 15.8335 22.8326 16.2218 23.0433C16.61 23.2517 16.906 23.5417 17.1096 23.9134C17.3155 24.2827 17.4185 24.7088 17.4185 25.1918C17.4185 25.6747 17.3143 26.1009 17.106 26.4702C16.8977 26.8395 16.5958 27.1271 16.2005 27.3331C15.8075 27.5391 15.3316 27.642 14.7729 27.642H12.9441V26.4098H14.5243C14.8203 26.4098 15.0641 26.3589 15.2559 26.2571C15.45 26.1529 15.5944 26.0097 15.6891 25.8274C15.7862 25.6428 15.8347 25.4309 15.8347 25.1918C15.8347 24.9503 15.7862 24.7396 15.6891 24.5597C15.5944 24.3774 15.45 24.2365 15.2559 24.1371C15.0617 24.0353 14.8155 23.9844 14.5172 23.9844H13.4803V30H11.9426ZM23.2397 25.0781C23.19 24.9053 23.1201 24.7526 23.0302 24.62C22.9402 24.4851 22.8301 24.3714 22.6999 24.2791C22.5721 24.1844 22.4253 24.1122 22.2596 24.0625C22.0962 24.0128 21.9151 23.9879 21.7163 23.9879C21.3446 23.9879 21.0179 24.0803 20.7362 24.2649C20.4568 24.4496 20.239 24.7183 20.0827 25.071C19.9265 25.4214 19.8484 25.8499 19.8484 26.3565C19.8484 26.8632 19.9253 27.294 20.0792 27.6491C20.2331 28.0043 20.4509 28.2753 20.7326 28.4624C21.0143 28.647 21.3469 28.7393 21.7305 28.7393C22.0785 28.7393 22.3756 28.6778 22.6218 28.5547C22.8704 28.4292 23.0598 28.2528 23.19 28.0256C23.3226 27.7983 23.3888 27.5296 23.3888 27.2195L23.7013 27.2656H21.8263V26.108H24.8697V27.0241C24.8697 27.6634 24.7347 28.2126 24.4648 28.6719C24.195 29.1288 23.8233 29.4815 23.3498 29.7301C22.8763 29.9763 22.3342 30.0994 21.7234 30.0994C21.0415 30.0994 20.4426 29.9491 19.9265 29.6484C19.4104 29.3454 19.0079 28.9157 18.7191 28.3594C18.4326 27.8007 18.2894 27.1378 18.2894 26.3707C18.2894 25.7812 18.3746 25.2557 18.5451 24.794C18.7179 24.33 18.9594 23.937 19.2695 23.6151C19.5797 23.2931 19.9407 23.0481 20.3526 22.88C20.7646 22.7119 21.2108 22.6278 21.6914 22.6278C22.1033 22.6278 22.4869 22.6882 22.842 22.8089C23.1971 22.9273 23.512 23.0954 23.7866 23.3132C24.0636 23.531 24.2897 23.7902 24.4648 24.0909C24.64 24.3892 24.7525 24.7183 24.8022 25.0781H23.2397Z" fill="white"/>
</svg>
