<svg width="34" height="34" viewBox="0 0 34 34" fill="none" xmlns="http://www.w3.org/2000/svg">
<path d="M1 9V5C1 3.93913 1.42143 2.92172 2.17157 2.17157C2.92172 1.42143 3.93913 1 5 1H9M1 25V29C1 30.0609 1.42143 31.0783 2.17157 31.8284C2.92172 32.5786 3.93913 33 5 33H9M25 1H29C30.0609 1 31.0783 1.42143 31.8284 2.17157C32.5786 2.92172 33 3.93913 33 5V9M25 33H29C30.0609 33 31.0783 32.5786 31.8284 31.8284C32.5786 31.0783 33 30.0609 33 29V25M7 17H27" stroke="black" stroke-width="2" stroke-linecap="round" stroke-linejoin="round"/>
</svg>
